<?xml version="1.0" encoding="UTF-8"?>
<svg width="1024" height="1024" viewBox="0 0 1024 1024" xmlns="http://www.w3.org/2000/svg">
    <!-- CorneaDeSci Logo - Modern technological eye design -->
    <defs>
        <!-- Radial gradient for the background -->
        <radialGradient id="darkBg" cx="50%" cy="50%" r="50%">
            <stop offset="0%" style="stop-color:#000B18;stop-opacity:1"/>
            <stop offset="100%" style="stop-color:#001529;stop-opacity:1"/>
        </radialGradient>
        
        <!-- Gradients for the eye elements -->
        <linearGradient id="blueGlow" x1="0%" y1="0%" x2="100%" y2="100%">
            <stop offset="0%" style="stop-color:#0066FF;stop-opacity:0.8"/>
            <stop offset="100%" style="stop-color:#00CCFF;stop-opacity:0.6"/>
        </linearGradient>
    </defs>
    
    <!-- Dark circular background -->
    <circle cx="512" cy="512" r="512" fill="url(#darkBg)"/>
    
    <!-- Hexagonal grid pattern -->
    <g fill="none" stroke="#003366" stroke-width="1" opacity="0.3">
        <path d="M0,0 h1024 v1024 h-1024z" fill="#000B18"/>
        <!-- Hexagonal pattern implementation -->
        <path d="M462,100 L562,100 L612,186 L562,272 L462,272 L412,186 Z"/>
    </g>
    
    <!-- Main eye structure -->
    <g transform="translate(512,512)">
        <!-- Outer ring with connection points -->
        <circle r="400" fill="none" stroke="#0066FF" stroke-width="2" opacity="0.3"/>
        <g id="connectionPoints">
            <!-- Connection points around the eye -->
            <circle cx="0" cy="-400" r="8" fill="#00CCFF"/>
            <circle cx="282" cy="-282" r="8" fill="#00CCFF"/>
            <circle cx="400" cy="0" r="8" fill="#00CCFF"/>
            <circle cx="282" cy="282" r="8" fill="#00CCFF"/>
            <circle cx="0" cy="400" r="8" fill="#00CCFF"/>
            <circle cx="-282" cy="282" r="8" fill="#00CCFF"/>
            <circle cx="-400" cy="0" r="8" fill="#00CCFF"/>
            <circle cx="-282" cy="-282" r="8" fill="#00CCFF"/>
        </g>
        
        <!-- Middle ring with data points -->
        <circle r="300" fill="none" stroke="#0088FF" stroke-width="3" opacity="0.5"/>
        <g id="dataPoints">
            <!-- Data points -->
            <circle cx="0" cy="-300" r="6" fill="#00CCFF"/>
            <circle cx="212" cy="-212" r="6" fill="#00CCFF"/>
            <circle cx="300" cy="0" r="6" fill="#00CCFF"/>
            <circle cx="212" cy="212" r="6" fill="#00CCFF"/>
            <circle cx="0" cy="300" r="6" fill="#00CCFF"/>
            <circle cx="-212" cy="212" r="6" fill="#00CCFF"/>
            <circle cx="-300" cy="0" r="6" fill="#00CCFF"/>
            <circle cx="-212" cy="-212" r="6" fill="#00CCFF"/>
        </g>
        
        <!-- Inner ring with technology nodes -->
        <circle r="200" fill="none" stroke="#00AAFF" stroke-width="4" opacity="0.7"/>
        <g id="techNodes">
            <!-- Technology nodes -->
            <circle cx="0" cy="-200" r="4" fill="#00CCFF"/>
            <circle cx="141" cy="-141" r="4" fill="#00CCFF"/>
            <circle cx="200" cy="0" r="4" fill="#00CCFF"/>
            <circle cx="141" cy="141" r="4" fill="#00CCFF"/>
            <circle cx="0" cy="200" r="4" fill="#00CCFF"/>
            <circle cx="-141" cy="141" r="4" fill="#00CCFF"/>
            <circle cx="-200" cy="0" r="4" fill="#00CCFF"/>
            <circle cx="-141" cy="-141" r="4" fill="#00CCFF"/>
        </g>
        
        <!-- Core eye elements -->
        <circle r="150" fill="url(#blueGlow)" opacity="0.3"/>
        <circle r="100" fill="#0066FF" opacity="0.5"/>
        <circle r="50" fill="#00CCFF"/>
        <circle r="25" fill="#FFFFFF"/>
    </g>
    
    <!-- Connection lines -->
    <g stroke="#00CCFF" stroke-width="1" opacity="0.2">
        <!-- Implement dynamic connection lines here -->
        <path d="M512,112 L794,794"/>
        <path d="M112,512 L912,512"/>
        <path d="M794,230 L230,794"/>
    </g>
</svg> 